<mxfile host="app.diagrams.net" modified="2024-01-22T09:24:52.386Z" agent="Mozilla/5.0 (Windows NT 10.0; Win64; x64) AppleWebKit/537.36 (KHTML, like Gecko) Chrome/120.0.0.0 Safari/537.36 Edg/120.0.0.0" etag="u5LsO5fC0jDJ1TfpxXRk" version="22.1.18" type="device">
  <diagram name="StrÃ¡nka-1" id="9V9VlovcLESAEiiYHyN-">
    <mxGraphModel dx="553" dy="653" grid="1" gridSize="10" guides="1" tooltips="1" connect="1" arrows="1" fold="1" page="1" pageScale="1" pageWidth="827" pageHeight="1169" math="0" shadow="0">
      <root>
        <mxCell id="0" />
        <mxCell id="1" parent="0" />
        <mxCell id="rGxlq5ZTbZFFZGtEcKT1-3" value="" style="edgeStyle=orthogonalEdgeStyle;rounded=0;orthogonalLoop=1;jettySize=auto;html=1;" edge="1" parent="1" source="rGxlq5ZTbZFFZGtEcKT1-1" target="rGxlq5ZTbZFFZGtEcKT1-2">
          <mxGeometry relative="1" as="geometry" />
        </mxCell>
        <mxCell id="rGxlq5ZTbZFFZGtEcKT1-1" value="3n+1" style="ellipse;whiteSpace=wrap;html=1;aspect=fixed;" vertex="1" parent="1">
          <mxGeometry x="374" y="90" width="80" height="80" as="geometry" />
        </mxCell>
        <mxCell id="rGxlq5ZTbZFFZGtEcKT1-5" value="" style="edgeStyle=orthogonalEdgeStyle;rounded=0;orthogonalLoop=1;jettySize=auto;html=1;" edge="1" parent="1" source="rGxlq5ZTbZFFZGtEcKT1-2" target="rGxlq5ZTbZFFZGtEcKT1-4">
          <mxGeometry relative="1" as="geometry" />
        </mxCell>
        <mxCell id="rGxlq5ZTbZFFZGtEcKT1-2" value="n cele cislo" style="shape=parallelogram;perimeter=parallelogramPerimeter;whiteSpace=wrap;html=1;fixedSize=1;" vertex="1" parent="1">
          <mxGeometry x="354" y="190" width="120" height="60" as="geometry" />
        </mxCell>
        <mxCell id="rGxlq5ZTbZFFZGtEcKT1-7" value="" style="edgeStyle=orthogonalEdgeStyle;rounded=0;orthogonalLoop=1;jettySize=auto;html=1;" edge="1" parent="1" source="rGxlq5ZTbZFFZGtEcKT1-4" target="rGxlq5ZTbZFFZGtEcKT1-6">
          <mxGeometry relative="1" as="geometry" />
        </mxCell>
        <mxCell id="rGxlq5ZTbZFFZGtEcKT1-17" value="" style="edgeStyle=orthogonalEdgeStyle;rounded=0;orthogonalLoop=1;jettySize=auto;html=1;" edge="1" parent="1" source="rGxlq5ZTbZFFZGtEcKT1-4" target="rGxlq5ZTbZFFZGtEcKT1-16">
          <mxGeometry relative="1" as="geometry" />
        </mxCell>
        <mxCell id="rGxlq5ZTbZFFZGtEcKT1-4" value="dokud n je vetsi nez 1" style="strokeWidth=2;html=1;shape=mxgraph.flowchart.loop_limit;whiteSpace=wrap;" vertex="1" parent="1">
          <mxGeometry x="364" y="270" width="100" height="60" as="geometry" />
        </mxCell>
        <mxCell id="rGxlq5ZTbZFFZGtEcKT1-9" value="" style="edgeStyle=orthogonalEdgeStyle;rounded=0;orthogonalLoop=1;jettySize=auto;html=1;" edge="1" parent="1" source="rGxlq5ZTbZFFZGtEcKT1-6" target="rGxlq5ZTbZFFZGtEcKT1-8">
          <mxGeometry relative="1" as="geometry" />
        </mxCell>
        <mxCell id="rGxlq5ZTbZFFZGtEcKT1-11" value="" style="edgeStyle=orthogonalEdgeStyle;rounded=0;orthogonalLoop=1;jettySize=auto;html=1;" edge="1" parent="1" source="rGxlq5ZTbZFFZGtEcKT1-6" target="rGxlq5ZTbZFFZGtEcKT1-10">
          <mxGeometry relative="1" as="geometry" />
        </mxCell>
        <mxCell id="rGxlq5ZTbZFFZGtEcKT1-6" value="n je liche?" style="rhombus;whiteSpace=wrap;html=1;strokeWidth=2;" vertex="1" parent="1">
          <mxGeometry x="374" y="350" width="80" height="80" as="geometry" />
        </mxCell>
        <mxCell id="rGxlq5ZTbZFFZGtEcKT1-19" value="" style="edgeStyle=orthogonalEdgeStyle;rounded=0;orthogonalLoop=1;jettySize=auto;html=1;" edge="1" parent="1" source="rGxlq5ZTbZFFZGtEcKT1-8" target="rGxlq5ZTbZFFZGtEcKT1-18">
          <mxGeometry relative="1" as="geometry">
            <Array as="points">
              <mxPoint x="300" y="450" />
              <mxPoint x="630" y="450" />
            </Array>
          </mxGeometry>
        </mxCell>
        <mxCell id="rGxlq5ZTbZFFZGtEcKT1-8" value="n = 3n+1" style="whiteSpace=wrap;html=1;strokeWidth=2;" vertex="1" parent="1">
          <mxGeometry x="234" y="360" width="120" height="60" as="geometry" />
        </mxCell>
        <mxCell id="rGxlq5ZTbZFFZGtEcKT1-21" value="" style="edgeStyle=orthogonalEdgeStyle;rounded=0;orthogonalLoop=1;jettySize=auto;html=1;" edge="1" parent="1" source="rGxlq5ZTbZFFZGtEcKT1-10" target="rGxlq5ZTbZFFZGtEcKT1-18">
          <mxGeometry relative="1" as="geometry" />
        </mxCell>
        <mxCell id="rGxlq5ZTbZFFZGtEcKT1-10" value="n = n/2" style="whiteSpace=wrap;html=1;strokeWidth=2;" vertex="1" parent="1">
          <mxGeometry x="474" y="360" width="120" height="60" as="geometry" />
        </mxCell>
        <mxCell id="rGxlq5ZTbZFFZGtEcKT1-16" value="konec&lt;br&gt;(pocet ruznych cisel n)" style="ellipse;whiteSpace=wrap;html=1;strokeWidth=2;" vertex="1" parent="1">
          <mxGeometry x="260" y="260" width="80" height="80" as="geometry" />
        </mxCell>
        <mxCell id="rGxlq5ZTbZFFZGtEcKT1-20" style="edgeStyle=orthogonalEdgeStyle;rounded=0;orthogonalLoop=1;jettySize=auto;html=1;" edge="1" parent="1" source="rGxlq5ZTbZFFZGtEcKT1-18" target="rGxlq5ZTbZFFZGtEcKT1-4">
          <mxGeometry relative="1" as="geometry">
            <Array as="points">
              <mxPoint x="630" y="300" />
            </Array>
          </mxGeometry>
        </mxCell>
        <mxCell id="rGxlq5ZTbZFFZGtEcKT1-18" value="" style="shape=waypoint;sketch=0;size=6;pointerEvents=1;points=[];fillColor=default;resizable=0;rotatable=0;perimeter=centerPerimeter;snapToPoint=1;strokeWidth=2;" vertex="1" parent="1">
          <mxGeometry x="620" y="380" width="20" height="20" as="geometry" />
        </mxCell>
      </root>
    </mxGraphModel>
  </diagram>
</mxfile>
